<?xml version="1.0" encoding="utf-8"?>
<!-- Generator: Adobe Illustrator 27.5.0, SVG Export Plug-In . SVG Version: 6.00 Build 0)  -->
<svg version="1.1" xmlns="http://www.w3.org/2000/svg" xmlns:xlink="http://www.w3.org/1999/xlink" x="0px" y="0px"
	 viewBox="0 0 500 500" style="enable-background:new 0 0 500 500;" xml:space="preserve">
<g id="Floor">
	<ellipse id="Floor_3_" style="fill:#F0F0F0;" cx="244.986" cy="342.952" rx="236.581" ry="136.59"/>
</g>
<g id="Shadow">
	<path id="Shadow_5_" style="fill:#E0E0E0;" d="M200.614,459.679c-2.67,0-5.239-0.636-7.233-1.788L78.087,391.315
		c-2.626-1.516-4.13-3.853-4.13-6.413c0-2.56,1.504-4.898,4.13-6.413l203.017-117.212c1.996-1.151,4.564-1.785,7.233-1.785
		s5.237,0.634,7.233,1.784l115.293,66.578c2.624,1.517,4.13,3.853,4.13,6.413c0,2.56-1.506,4.897-4.13,6.413L207.845,457.892
		C205.853,459.043,203.283,459.679,200.614,459.679z"/>
</g>
<g id="Plants">
	<g id="Plants_8_">
		<g id="XMLID_759_">
			<path id="XMLID_763_" style="fill:#27DEBF;" d="M406.138,320.23l-11.25-5.953c0,0-0.854-17.199,0.485-30.829
				c1.882-19.153,16.125-41.393,30.881-35.98c14.757,5.412-6.766,24.918-11.557,41.164
				C409.907,304.877,406.138,320.23,406.138,320.23z"/>
			<path id="XMLID_761_" style="opacity:0.1;" d="M406.138,320.23l-11.25-5.953c0,0-0.854-17.199,0.485-30.829
				c1.882-19.153,16.125-41.393,30.881-35.98c14.757,5.412-6.766,24.918-11.557,41.164
				C409.907,304.877,406.138,320.23,406.138,320.23z"/>
			<path id="XMLID_760_" style="fill:#FFFFFF;" d="M400.639,318.232c0.006,0,0.011,0,0.017,0c0.274-0.009,0.49-0.239,0.48-0.514
				c-1.444-42.559,19.742-63.967,19.956-64.177c0.196-0.194,0.198-0.508,0.005-0.704c-0.195-0.196-0.51-0.198-0.704-0.005
				c-0.218,0.215-21.71,21.93-20.253,64.92C400.151,318.021,400.372,318.232,400.639,318.232z"/>
		</g>
		<g id="XMLID_741_">
			<path id="XMLID_758_" style="fill:#27DEBF;" d="M411.913,323.626l-5.848-3.376c0,0-1.84-13.547,3.63-28.393
				c5.42-14.708,19.423-22.727,25.868-20.535c7.868,2.676,7.916,10.207,5.052,15.16
				C437.241,292.319,416.161,307.087,411.913,323.626z"/>
			<path id="XMLID_754_" style="fill:#FFFFFF;" d="M408.828,322.342h0.002c0.274-0.001,0.497-0.225,0.495-0.5
				c-0.116-26.909,25.15-45.095,25.406-45.276c0.224-0.159,0.277-0.469,0.118-0.693c-0.157-0.223-0.466-0.279-0.693-0.118
				c-0.259,0.183-25.944,18.672-25.826,46.092C408.332,322.121,408.554,322.342,408.828,322.342z"/>
		</g>
	</g>
	<g id="Plants_1_">
		<g id="XMLID_712_">
			<g id="XMLID_714_">
				<path id="XMLID_734_" style="fill:#27DEBF;" d="M69.021,331.899v-23.438c0,0-1.199-13.228-10.465-23.258
					c-9.266-10.031-17.566-6.619-20.268-1.858c-2.702,4.761,3.446,13.798,7.373,18.883c4.726,6.122,23.36,34.548,23.36,47.278
					V331.899z"/>
			</g>
			<g id="XMLID_756_" style="opacity:0.2;">
				<path id="XMLID_879_" d="M69.021,331.899v-23.438c0,0-1.199-13.228-10.465-23.258c-9.266-10.031-17.566-6.619-20.268-1.858
					c-2.702,4.761,3.446,13.798,7.373,18.883c4.726,6.122,23.36,34.548,23.36,47.278V331.899z"/>
			</g>
			<g id="XMLID_713_">
				<path id="XMLID_732_" style="fill:#FFFFFF;" d="M69.021,328.196c-0.276,0-0.52-0.2-0.567-0.481
					c-4.227-25.561-23.679-43.103-23.875-43.277c-0.238-0.211-0.259-0.575-0.048-0.812c0.21-0.238,0.575-0.257,0.812-0.048
					c0.199,0.177,19.952,17.977,24.246,43.949c0.052,0.313-0.16,0.61-0.473,0.662C69.083,328.193,69.051,328.196,69.021,328.196z"/>
			</g>
		</g>
		<g id="XMLID_705_">
			<g id="XMLID_711_">
				<path id="XMLID_728_" style="fill:#27DEBF;" d="M69.121,334.974c0,0,0.767-2.329-2.655-2.919
					c-3.422-0.59-4.736-3.438-5.057-8.212c-0.321-4.774-1.762-8.202-6.055-8.906c-4.293-0.705-7.748,1.456-10.538-0.693
					c-2.79-2.149-9.997-7.344-16.001-4.978c-6.004,2.365-4.036,7.491-0.913,10.817s4.028,4.445,1.638,9.852
					c-2.39,5.406-0.649,10.457,4.874,11.721c5.524,1.264,8.611,0.617,8.697,6.679c0.086,6.062,0.923,8.76,3.948,11.133
					c3.025,2.373,12.549,1.305,16.507,2.227s5.554,4.452,5.554,4.452V334.974z"/>
			</g>
			<g id="XMLID_710_">
				<path id="XMLID_725_" style="fill:#FFFFFF;" d="M69.122,359.94c-0.198,0-0.383-0.125-0.45-0.324
					c-10.055-29.855-32.811-41.914-33.039-42.031c-0.233-0.12-0.324-0.407-0.204-0.64c0.119-0.233,0.406-0.326,0.639-0.204
					c0.232,0.12,23.321,12.337,33.503,42.573c0.084,0.248-0.05,0.517-0.298,0.601C69.223,359.931,69.173,359.94,69.122,359.94z"/>
			</g>
			<g id="XMLID_709_">
				<path id="XMLID_723_" style="fill:#FFFFFF;" d="M54.698,333.915c-0.035,0-0.07-0.004-0.106-0.012
					c-6.564-1.5-17.072-0.689-17.177-0.682c-0.264,0.02-0.49-0.173-0.511-0.435c-0.021-0.261,0.174-0.49,0.436-0.511
					c0.436-0.036,10.758-0.83,17.464,0.703c0.256,0.058,0.415,0.312,0.357,0.568C55.111,333.766,54.915,333.915,54.698,333.915z"/>
			</g>
			<g id="XMLID_707_">
				<path id="XMLID_720_" style="fill:#FFFFFF;" d="M60.051,348.264c-3,0-6.183-0.196-6.384-0.209
					c-0.261-0.017-0.46-0.242-0.444-0.503c0.016-0.262,0.24-0.473,0.503-0.444c0.073,0.004,7.408,0.455,10.269,0.005
					c0.261-0.038,0.502,0.136,0.543,0.395c0.041,0.259-0.136,0.503-0.395,0.543C63.128,348.211,61.614,348.264,60.051,348.264z"/>
			</g>
			<g id="XMLID_706_">
				<path id="XMLID_718_" style="fill:#FFFFFF;" d="M51.616,330.408c-0.009,0-0.018,0-0.027-0.001
					c-0.262-0.014-0.462-0.238-0.447-0.5c0.292-5.266,2.039-9.807,2.113-9.998c0.095-0.244,0.371-0.367,0.614-0.27
					c0.244,0.095,0.365,0.37,0.27,0.615c-0.018,0.045-1.766,4.596-2.05,9.705C52.076,330.212,51.866,330.408,51.616,330.408z"/>
			</g>
		</g>
	</g>
</g>
<g id="Device">
	<g id="Laptop_2_">
		<path id="XMLID_1293_" style="fill:#27DEBF;" d="M74.729,376.138c0,3.168,2.371,7.105,5.296,8.793l115.292,66.577
			c2.924,1.689,7.666,1.689,10.591,0l203.016-117.212c2.924-1.688,5.296-5.625,5.296-8.794c0-3.168-2.371-7.105-5.295-8.794
			l-115.293-66.577c-2.924-1.689-7.666-1.689-10.591,0L80.024,367.345C77.1,369.033,74.729,372.97,74.729,376.138z"/>
		<path id="XMLID_731_" style="opacity:0.5;" d="M414.224,325.504c0,3.171-2.373,7.101-5.297,8.791L205.906,451.513
			c-1.462,0.835-3.38,1.263-5.288,1.263v-11.468c1.908,0,3.826-0.427,5.288-1.272l203.021-117.208
			c2.561-1.476,2.881-3.761,0.96-5.441C412.348,319.298,414.224,322.693,414.224,325.504z"/>
		<path id="XMLID_1288_" style="opacity:0.3;" d="M80.024,373.459l115.293,66.577c2.924,1.689,7.666,1.689,10.591,0l203.017-117.212
			c2.925-1.688,2.925-4.426,0-6.115l-115.293-66.577c-2.924-1.689-7.666-1.689-10.591,0L80.024,367.345
			C77.1,369.033,77.1,371.771,80.024,373.459z"/>
		<path id="XMLID_1292_" style="opacity:0.7;" d="M200.615,441.313v11.459c-1.92,0-3.84-0.416-5.295-1.26l-115.297-66.58
			c-2.923-1.688-5.295-5.626-5.295-8.793c0-2.972,2.091-6.616,4.757-8.451c-2.373,1.7-2.189,4.195,0.538,5.772l115.297,66.58
			C196.775,440.885,198.695,441.313,200.615,441.313z"/>
		<path id="XMLID_1291_" style="fill:#27DEBF;" d="M69.762,367.534c-2.743-1.584-2.594-4.259-2.594-7.636l-0.001-159.248
			c0-3.377,2.371-7.484,5.295-9.172L275.479,74.267c2.925-1.688,7.52-1.773,10.263-0.189c2.744,1.584,2.595,4.259,2.595,7.636
			v159.248c0,3.377-2.371,7.483-5.296,9.172L80.024,367.345C77.1,369.033,72.505,369.118,69.762,367.534z"/>
		<path id="XMLID_726_" style="opacity:0.3;" d="M288.339,81.709c0-3.37-2.373-4.737-5.297-3.057L80.021,195.869
			c-1.462,0.845-2.791,2.297-3.741,3.959l-7.557-4.396h-0.009c0.959-1.661,2.288-3.114,3.75-3.959L275.475,74.266
			c2.924-1.69,7.519-1.775,10.263-0.19C288.482,75.661,288.339,78.339,288.339,81.709z"/>
		<path id="XMLID_1289_" style="opacity:0.5;" d="M74.729,205.04v159.248c0,3.377,2.371,4.746,5.295,3.057l203.018-117.212
			c2.925-1.689,5.296-5.795,5.296-9.172V81.713c0-3.377-2.371-4.746-5.296-3.057L80.024,195.868
			C77.1,197.556,74.729,201.663,74.729,205.04z"/>
		<path id="XMLID_1290_" style="opacity:0.7;" d="M79.399,367.664c-2.923,1.37-7.081,1.345-9.637-0.135
			c-2.739-1.577-2.592-4.254-2.592-7.629V200.646c0-1.688,0.587-3.559,1.553-5.21l7.557,4.376v0.012
			c-0.954,1.663-1.553,3.522-1.553,5.21v159.254C74.728,367.419,76.77,368.826,79.399,367.664z"/>
		<path id="XMLID_1287_" style="fill:#FAFAFA;" d="M82.873,201.976L278.608,88.998c1.755-1.013,3.177-0.192,3.177,1.835v139.014
			c0,2.026-1.423,4.49-3.177,5.503L82.873,348.326c-1.755,1.013-3.177,0.192-3.177-1.835V207.479
			C79.696,205.453,81.118,202.989,82.873,201.976z"/>
		<g id="XMLID_672_">
			<g id="XMLID_552_">
				<path id="XMLID_549_" style="fill:#455A64;" d="M123.842,236.941l114.928-66.354c3.406-1.966,6.166-0.569,6.166,3.12
					s-2.761,8.274-6.166,10.24l-114.927,66.352c-3.406,1.966-6.167,0.57-6.167-3.119
					C117.676,243.491,120.437,238.907,123.842,236.941z"/>
				<path id="XMLID_607_" style="fill:#27DEBF;" d="M243.036,173.711c0,3.019-2.383,6.959-5.212,8.592l-23.478,13.557
					l-91.452,52.794c-0.911,0.532-1.566,0.636-1.946,0.636c-0.911,0-1.376-0.712-1.376-2.108c0-3.029,2.392-6.968,5.221-8.601
					l89.553-51.702l25.377-14.649c0.911-0.522,1.557-0.636,1.946-0.636C242.58,171.594,243.036,172.306,243.036,173.711z"/>
				<path id="XMLID_559_" style="fill:#27DEBF;" d="M243.036,173.711c0,3.019-2.383,6.959-5.212,8.592l-23.478,13.557
					l-91.452,52.794c-0.911,0.532-1.566,0.636-1.946,0.636c-0.911,0-1.376-0.712-1.376-2.108c0-3.029,2.392-6.968,5.221-8.601
					l89.553-51.702l25.377-14.649c0.911-0.522,1.557-0.636,1.946-0.636C242.58,171.594,243.036,172.306,243.036,173.711z"/>
				<path id="XMLID_605_" style="fill:#263238;" d="M243.036,173.711c0,3.019-2.383,6.959-5.212,8.592l-23.478,13.557v-8.981
					l25.377-14.649c0.911-0.522,1.557-0.636,1.946-0.636C242.58,171.594,243.036,172.306,243.036,173.711z"/>
				<path id="XMLID_599_" style="opacity:0.6;fill:#FFFFFF;" d="M151.074,223.408l-26.281,15.173
					c-2.829,1.633-5.221,5.573-5.221,8.601c0,1.396,0.465,2.108,1.376,2.108c0.38,0,1.035-0.105,1.946-0.636l28.18-16.268V223.408z"
					/>
				<polygon id="XMLID_606_" style="opacity:0.4;fill:#FFFFFF;" points="151.077,232.384 182.929,213.996 182.929,205.017 
					151.077,223.406 				"/>
			</g>
			<g id="XMLID_551_">
				<path id="XMLID_556_" style="fill:#455A64;" d="M159.665,253.51c0.097-0.056,0.183-0.05,0.254,0.019
					c0.071,0.069,0.108,0.179,0.108,0.33v1.466c0,0.151-0.036,0.303-0.108,0.454c-0.071,0.151-0.157,0.255-0.254,0.312l-5.873,3.391
					c-0.098,0.056-0.184,0.051-0.255-0.018c-0.071-0.07-0.107-0.18-0.107-0.331v-13.336c0-0.151,0.035-0.302,0.107-0.453
					c0.071-0.152,0.157-0.256,0.255-0.313l1.087-0.628c0.097-0.056,0.183-0.05,0.254,0.018c0.071,0.069,0.107,0.179,0.107,0.33
					v11.313L159.665,253.51z"/>
				<path id="XMLID_561_" style="fill:#455A64;" d="M164.934,242.108c0.491-0.285,0.935-0.425,1.334-0.419
					c0.398,0.004,0.742,0.128,1.033,0.373c0.289,0.246,0.522,0.593,0.696,1.044c0.174,0.45,0.275,0.982,0.302,1.6
					c0.009,0.119,0.014,0.274,0.014,0.467c0,0.193,0,0.385,0,0.578c0,0.193,0,0.382,0,0.567c0,0.186-0.005,0.344-0.014,0.472
					c-0.036,0.654-0.139,1.306-0.309,1.954c-0.17,0.649-0.4,1.26-0.69,1.834c-0.291,0.573-0.635,1.092-1.033,1.556
					c-0.399,0.464-0.843,0.837-1.334,1.122c-0.491,0.284-0.936,0.423-1.334,0.418c-0.398-0.004-0.742-0.125-1.033-0.364
					c-0.29-0.238-0.521-0.583-0.69-1.036c-0.171-0.451-0.273-0.985-0.309-1.597c-0.008-0.119-0.016-0.269-0.02-0.452
					c-0.005-0.184-0.007-0.371-0.007-0.564s0.002-0.386,0.007-0.582c0.005-0.195,0.012-0.358,0.02-0.486
					c0.027-0.649,0.128-1.298,0.302-1.95c0.174-0.652,0.406-1.267,0.696-1.848c0.291-0.58,0.635-1.102,1.033-1.565
					C163.997,242.765,164.442,242.392,164.934,242.108z M166.556,245.816c-0.027-0.411-0.092-0.728-0.195-0.951
					c-0.103-0.223-0.23-0.372-0.382-0.45c-0.152-0.078-0.317-0.096-0.496-0.055c-0.179,0.042-0.363,0.116-0.55,0.225
					c-0.187,0.108-0.371,0.245-0.55,0.41c-0.179,0.165-0.344,0.374-0.496,0.627c-0.152,0.254-0.279,0.551-0.382,0.892
					c-0.103,0.341-0.168,0.733-0.195,1.176c-0.008,0.115-0.016,0.256-0.019,0.424c-0.006,0.168-0.007,0.342-0.007,0.52
					c0,0.18,0.002,0.353,0.007,0.523c0.004,0.169,0.011,0.299,0.019,0.391c0.027,0.411,0.092,0.727,0.195,0.951
					c0.103,0.222,0.23,0.373,0.382,0.449c0.152,0.078,0.317,0.096,0.496,0.056c0.179-0.043,0.363-0.117,0.55-0.224
					c0.187-0.109,0.371-0.247,0.55-0.411c0.179-0.166,0.344-0.376,0.496-0.628c0.152-0.252,0.279-0.55,0.382-0.891
					c0.103-0.342,0.168-0.733,0.195-1.176c0.008-0.101,0.014-0.238,0.014-0.411c0-0.172,0-0.347,0-0.527c0-0.178,0-0.35,0-0.516
					C166.57,246.056,166.564,245.92,166.556,245.816z"/>
				<path id="XMLID_610_" style="fill:#455A64;" d="M170.511,241.737c0.036-0.311,0.119-0.668,0.247-1.073
					c0.13-0.404,0.313-0.82,0.551-1.246c0.236-0.426,0.527-0.831,0.871-1.215c0.345-0.385,0.744-0.709,1.201-0.972
					c0.456-0.263,0.867-0.408,1.233-0.433c0.367-0.027,0.682,0.063,0.946,0.269c0.264,0.206,0.467,0.539,0.61,1.001
					c0.143,0.461,0.215,1.042,0.215,1.744v6.068c0,0.152-0.036,0.303-0.107,0.454c-0.071,0.152-0.157,0.256-0.255,0.313
					l-1.019,0.589c-0.098,0.057-0.184,0.051-0.255-0.019c-0.071-0.069-0.107-0.179-0.107-0.33v-0.681
					c-0.188,0.508-0.459,1.004-0.812,1.49c-0.353,0.486-0.802,0.887-1.347,1.202c-0.385,0.223-0.729,0.341-1.033,0.36
					c-0.303,0.017-0.558-0.059-0.764-0.23c-0.206-0.171-0.364-0.42-0.476-0.747c-0.112-0.328-0.168-0.726-0.168-1.194
					c0-0.949,0.219-1.819,0.657-2.609c0.438-0.788,1.023-1.492,1.756-2.108l2.186-1.839c0-0.565-0.121-0.893-0.363-0.989
					c-0.242-0.094-0.541-0.038-0.898,0.168c-0.223,0.129-0.398,0.278-0.523,0.446c-0.125,0.168-0.247,0.369-0.362,0.601
					c-0.081,0.157-0.155,0.274-0.222,0.355c-0.067,0.08-0.141,0.143-0.221,0.189l-1.247,0.72c-0.09,0.052-0.166,0.054-0.228,0.007
					C170.516,241.981,170.493,241.884,170.511,241.737z M172.75,246.265c0.304-0.176,0.574-0.398,0.811-0.666
					c0.236-0.267,0.436-0.557,0.596-0.871c0.161-0.312,0.282-0.63,0.363-0.952c0.081-0.321,0.121-0.626,0.121-0.916v-0.207
					l-1.824,1.549c-0.367,0.308-0.63,0.601-0.792,0.879c-0.16,0.28-0.241,0.577-0.241,0.894c0,0.289,0.095,0.447,0.288,0.473
					C172.265,246.477,172.491,246.414,172.75,246.265z"/>
				<path id="XMLID_627_" style="fill:#455A64;" d="M181.518,232.532c0.277-0.16,0.525-0.261,0.745-0.305
					c0.219-0.044,0.411-0.052,0.577-0.023c0.165,0.028,0.306,0.081,0.422,0.158c0.117,0.077,0.209,0.157,0.282,0.24v-4.397
					c0-0.151,0.035-0.302,0.107-0.454c0.071-0.151,0.157-0.255,0.256-0.313l1.019-0.588c0.097-0.057,0.183-0.05,0.254,0.018
					c0.071,0.069,0.107,0.179,0.107,0.33v13.542c0,0.152-0.036,0.303-0.107,0.454c-0.071,0.152-0.157,0.256-0.254,0.312
					l-1.019,0.589c-0.099,0.056-0.184,0.051-0.256-0.019c-0.071-0.069-0.107-0.179-0.107-0.33v-0.475
					c-0.072,0.165-0.165,0.353-0.282,0.566c-0.116,0.211-0.257,0.426-0.422,0.645c-0.166,0.221-0.358,0.434-0.577,0.643
					c-0.22,0.209-0.467,0.393-0.745,0.553c-0.447,0.259-0.851,0.357-1.213,0.298c-0.362-0.059-0.671-0.239-0.925-0.539
					c-0.256-0.3-0.456-0.699-0.604-1.2c-0.148-0.499-0.231-1.061-0.249-1.684c-0.009-0.202-0.014-0.439-0.014-0.714
					c0-0.275,0.005-0.519,0.014-0.73c0.018-0.643,0.1-1.3,0.249-1.971c0.147-0.67,0.348-1.302,0.604-1.897
					c0.254-0.594,0.563-1.13,0.925-1.608C180.667,233.158,181.072,232.79,181.518,232.532z M180.272,238.247
					c-0.026,0.401-0.026,0.787,0,1.156c0.054,0.864,0.232,1.404,0.537,1.62c0.303,0.217,0.675,0.199,1.113-0.054
					c0.438-0.252,0.807-0.665,1.106-1.237c0.299-0.572,0.472-1.242,0.516-2.011c0.018-0.217,0.027-0.484,0.027-0.8
					c0-0.316-0.009-0.573-0.027-0.769c-0.045-0.69-0.217-1.155-0.516-1.395c-0.299-0.24-0.668-0.233-1.106,0.019
					c-0.438,0.253-0.809,0.663-1.113,1.231C180.503,236.576,180.325,237.323,180.272,238.247z"/>
				<path id="XMLID_631_" style="fill:#455A64;" d="M189.255,224.35c0.098-0.057,0.184-0.05,0.255,0.018
					c0.071,0.069,0.108,0.179,0.108,0.33v1.61c0,0.152-0.036,0.304-0.108,0.454c-0.071,0.152-0.157,0.255-0.255,0.312l-1.152,0.666
					c-0.099,0.057-0.185,0.051-0.256-0.018c-0.071-0.068-0.107-0.178-0.107-0.331v-1.61c0-0.151,0.035-0.302,0.107-0.454
					c0.071-0.151,0.157-0.256,0.256-0.313L189.255,224.35z M189.55,238.279c0,0.151-0.035,0.302-0.107,0.454
					c-0.072,0.152-0.157,0.255-0.256,0.313l-1.019,0.588c-0.097,0.057-0.183,0.051-0.254-0.018c-0.071-0.069-0.108-0.179-0.108-0.33
					v-9.62c0-0.151,0.036-0.303,0.108-0.454c0.071-0.152,0.157-0.255,0.254-0.312l1.019-0.588c0.099-0.057,0.184-0.051,0.256,0.018
					c0.071,0.069,0.107,0.179,0.107,0.331V238.279z"/>
				<path id="XMLID_634_" style="fill:#455A64;" d="M198.614,233.046c0,0.151-0.036,0.303-0.108,0.454
					c-0.071,0.152-0.156,0.255-0.254,0.312l-1.019,0.588c-0.099,0.057-0.184,0.051-0.255-0.018c-0.072-0.069-0.108-0.179-0.108-0.33
					v-5.244c0-0.825-0.125-1.414-0.375-1.764c-0.25-0.351-0.635-0.377-1.153-0.078c-0.473,0.273-0.846,0.737-1.119,1.39
					c-0.273,0.653-0.409,1.393-0.409,2.218v5.244c0,0.151-0.036,0.302-0.108,0.454c-0.072,0.152-0.157,0.255-0.255,0.312
					l-1.019,0.588c-0.098,0.057-0.183,0.051-0.255-0.018c-0.071-0.069-0.107-0.179-0.107-0.33v-9.62
					c0-0.151,0.036-0.303,0.107-0.454c0.072-0.151,0.157-0.255,0.255-0.312l1.019-0.588c0.098-0.057,0.183-0.051,0.255,0.018
					c0.071,0.069,0.108,0.179,0.108,0.331v0.475c0.233-0.492,0.504-0.945,0.818-1.36c0.312-0.415,0.684-0.746,1.112-0.994
					c0.545-0.315,1.001-0.447,1.368-0.397c0.367,0.05,0.662,0.231,0.885,0.542c0.223,0.311,0.382,0.732,0.476,1.262
					c0.094,0.532,0.142,1.12,0.142,1.766V233.046z"/>
				<path id="XMLID_636_" style="fill:#455A64;" d="M204.11,232.494c0.188-0.108,0.38-0.265,0.577-0.467
					c0.197-0.204,0.376-0.448,0.537-0.733c0.16-0.286,0.293-0.606,0.396-0.961c0.102-0.355,0.154-0.732,0.154-1.131v-0.764
					c-0.072,0.165-0.166,0.353-0.282,0.565c-0.117,0.212-0.257,0.426-0.423,0.646c-0.165,0.22-0.357,0.433-0.576,0.643
					c-0.22,0.209-0.467,0.394-0.744,0.554c-0.448,0.258-0.851,0.357-1.214,0.297c-0.362-0.059-0.67-0.239-0.924-0.539
					c-0.256-0.3-0.456-0.7-0.605-1.2c-0.147-0.5-0.23-1.061-0.248-1.684c-0.009-0.202-0.014-0.439-0.014-0.714
					c0-0.275,0.005-0.519,0.014-0.73c0.018-0.643,0.1-1.3,0.248-1.97c0.148-0.67,0.349-1.302,0.605-1.897
					c0.254-0.594,0.563-1.13,0.924-1.608c0.363-0.477,0.766-0.845,1.214-1.103c0.277-0.16,0.525-0.262,0.744-0.306
					c0.219-0.044,0.411-0.052,0.576-0.023c0.166,0.028,0.306,0.081,0.423,0.159c0.116,0.077,0.21,0.157,0.282,0.24v-0.475
					c0-0.151,0.035-0.302,0.107-0.454s0.157-0.255,0.255-0.312l1.019-0.588c0.098-0.057,0.184-0.051,0.255,0.018
					c0.071,0.069,0.107,0.179,0.107,0.33v9.682c0,1.665-0.302,3.095-0.906,4.29c-0.603,1.195-1.436,2.099-2.5,2.714
					c-0.456,0.263-0.878,0.413-1.266,0.452c-0.388,0.039-0.727-0.014-1.012-0.159c-0.286-0.145-0.514-0.363-0.684-0.657
					c-0.17-0.294-0.263-0.643-0.281-1.046c-0.009-0.146,0.024-0.296,0.1-0.45c0.075-0.154,0.163-0.259,0.261-0.316l0.911-0.526
					c0.125-0.072,0.233-0.07,0.323,0.011c0.089,0.078,0.165,0.155,0.227,0.229c0.116,0.167,0.275,0.268,0.477,0.304
					C203.367,232.848,203.682,232.742,204.11,232.494z M202.502,225.413c-0.027,0.401-0.027,0.787,0,1.156
					c0.054,0.864,0.232,1.404,0.536,1.62c0.304,0.217,0.676,0.199,1.113-0.054c0.438-0.253,0.807-0.665,1.106-1.238
					c0.299-0.572,0.471-1.242,0.516-2.011c0.018-0.217,0.026-0.484,0.026-0.8c0-0.316-0.008-0.573-0.026-0.769
					c-0.046-0.69-0.217-1.155-0.516-1.395c-0.299-0.24-0.669-0.233-1.106,0.02c-0.438,0.253-0.809,0.663-1.113,1.231
					C202.734,223.742,202.556,224.488,202.502,225.413z"/>
				<path id="XMLID_654_" style="fill:#455A64;" d="M211.486,223.035c0.097-0.057,0.183-0.051,0.254,0.018
					c0.071,0.069,0.108,0.179,0.108,0.33v2.023c0,0.151-0.036,0.303-0.108,0.454c-0.071,0.152-0.157,0.255-0.254,0.312l-1.247,0.72
					c-0.099,0.057-0.184,0.051-0.256-0.018c-0.071-0.069-0.107-0.179-0.107-0.331v-2.023c0-0.151,0.035-0.302,0.107-0.454
					c0.072-0.152,0.157-0.255,0.256-0.312L211.486,223.035z"/>
				<path id="XMLID_656_" style="fill:#455A64;" d="M215.655,220.627c0.098-0.057,0.183-0.051,0.255,0.018
					c0.071,0.069,0.107,0.179,0.107,0.33v2.023c0,0.151-0.036,0.303-0.107,0.454c-0.072,0.152-0.157,0.255-0.255,0.312l-1.247,0.72
					c-0.098,0.057-0.184,0.051-0.255-0.018c-0.071-0.069-0.107-0.179-0.107-0.331v-2.023c0-0.151,0.035-0.302,0.107-0.454
					c0.071-0.152,0.157-0.255,0.255-0.313L215.655,220.627z"/>
				<path id="XMLID_660_" style="fill:#455A64;" d="M219.824,218.22c0.098-0.057,0.184-0.051,0.255,0.018
					c0.071,0.069,0.107,0.179,0.107,0.33v2.023c0,0.151-0.036,0.303-0.107,0.454c-0.071,0.152-0.157,0.256-0.255,0.312l-1.247,0.72
					c-0.098,0.057-0.184,0.051-0.255-0.018c-0.071-0.069-0.107-0.179-0.107-0.33v-2.023c0-0.151,0.035-0.302,0.107-0.454
					c0.071-0.152,0.157-0.255,0.255-0.312L219.824,218.22z"/>
			</g>
		</g>
		<path id="XMLID_1285_" style="opacity:0.3;" d="M94.679,367.657l188.444-108.797c1.462-0.844,3.833-0.844,5.296,0l3.138,1.724
			c1.462,0.844,1.462,2.213,0,3.057l-188.472,108.78c-1.462,0.844-3.833,0.844-5.296,0l-3.109-1.706
			C93.216,369.871,93.216,368.502,94.679,367.657z"/>
		<g id="XMLID_1597_">
			<path id="XMLID_1284_" style="opacity:0.3;fill:#263238;" d="M109.459,376.446l188.442-108.798
				c1.462-0.844,3.629-0.962,4.838-0.264l49.049,28.32c1.21,0.698,1.005,1.949-0.457,2.793l-188.223,108.65
				c-1.462,0.844-3.631,0.966-4.844,0.272l-49.257-28.187C107.795,378.538,107.997,377.291,109.459,376.446z"/>
			<path id="XMLID_1172_" style="fill:#263238;" d="M272.747,313.345l5.9-3.406c0.251-0.145,0.273-0.367,0.051-0.495l-5.645-3.259
				c-0.223-0.129-0.607-0.115-0.857,0.029l-5.9,3.407c-0.251,0.145-0.273,0.366-0.05,0.495l5.644,3.259
				C272.112,313.503,272.496,313.49,272.747,313.345z M264.132,301.559l-5.9,3.406c-0.25,0.145-0.273,0.366-0.05,0.495l5.645,3.259
				c0.223,0.129,0.607,0.115,0.857-0.029l5.9-3.407c0.251-0.145,0.274-0.366,0.051-0.494l-5.645-3.259
				C264.766,301.401,264.383,301.414,264.132,301.559z M245.07,312.564l-9.985,5.765c-0.251,0.144-0.273,0.366-0.051,0.494
				l5.645,3.259c0.223,0.129,0.607,0.115,0.857-0.029l9.985-5.764c0.251-0.145,0.273-0.366,0.051-0.495l-5.644-3.259
				C245.704,312.406,245.321,312.419,245.07,312.564z M255.509,306.537l-5.9,3.407c-0.25,0.144-0.273,0.366-0.05,0.494l5.645,3.259
				c0.222,0.129,0.606,0.115,0.856-0.029l5.9-3.406c0.251-0.145,0.274-0.366,0.051-0.495l-5.645-3.259
				C256.143,306.379,255.759,306.392,255.509,306.537z M232.362,319.901l-5.9,3.406c-0.251,0.145-0.273,0.366-0.051,0.495
				l5.645,3.259c0.222,0.129,0.606,0.115,0.857-0.029l5.9-3.407c0.25-0.145,0.273-0.366,0.05-0.494l-5.644-3.259
				C232.996,319.743,232.613,319.756,232.362,319.901z M223.739,324.88l-5.9,3.406c-0.251,0.145-0.273,0.366-0.051,0.495
				l5.645,3.259c0.223,0.129,0.606,0.116,0.857-0.029l5.9-3.406c0.251-0.145,0.273-0.366,0.051-0.495l-5.645-3.259
				C224.373,324.722,223.99,324.735,223.739,324.88z M245.864,338.177l5.9-3.407c0.25-0.144,0.273-0.366,0.05-0.494l-5.644-3.259
				c-0.223-0.129-0.607-0.115-0.857,0.029l-5.9,3.406c-0.251,0.145-0.274,0.366-0.051,0.495l5.645,3.259
				C245.229,338.336,245.613,338.322,245.864,338.177z M237.24,343.156l5.9-3.406c0.251-0.145,0.273-0.366,0.05-0.495l-5.644-3.259
				c-0.223-0.129-0.606-0.116-0.857,0.029l-5.9,3.407c-0.251,0.145-0.273,0.367-0.051,0.495l5.645,3.259
				C236.606,343.314,236.99,343.301,237.24,343.156z M228.617,348.135l5.9-3.407c0.251-0.145,0.273-0.366,0.05-0.494l-5.644-3.259
				c-0.223-0.129-0.607-0.115-0.857,0.029l-5.9,3.406c-0.251,0.145-0.273,0.366-0.05,0.495l5.644,3.259
				C227.983,348.293,228.366,348.279,228.617,348.135z M219.993,353.113l5.9-3.406c0.251-0.145,0.273-0.366,0.05-0.495l-5.644-3.259
				c-0.223-0.129-0.606-0.116-0.857,0.029l-5.9,3.406c-0.251,0.145-0.273,0.366-0.051,0.495l5.645,3.259
				C219.359,353.271,219.743,353.258,219.993,353.113z M264.124,318.324l5.9-3.407c0.25-0.144,0.273-0.366,0.051-0.495l-5.645-3.259
				c-0.222-0.129-0.606-0.115-0.857,0.029l-5.9,3.406c-0.251,0.145-0.274,0.367-0.051,0.495l5.645,3.259
				C263.489,318.482,263.873,318.468,264.124,318.324z M254.487,333.199l13.162-7.599c0.251-0.145,0.273-0.366,0.05-0.495
				l-13.708-7.914c-0.223-0.129-0.606-0.115-0.857,0.029l-6.808,3.93c-0.251,0.145-0.273,0.366-0.051,0.495l7.258,4.19
				c0.223,0.128,0.2,0.35-0.051,0.495l-5.446,3.145c-0.251,0.145-0.274,0.366-0.051,0.494l5.645,3.259
				C253.852,333.357,254.236,333.343,254.487,333.199z M215.116,329.858l-5.9,3.407c-0.251,0.145-0.273,0.366-0.05,0.494
				l5.644,3.259c0.223,0.129,0.606,0.115,0.857-0.029l5.9-3.406c0.251-0.145,0.273-0.366,0.05-0.495l-5.644-3.259
				C215.75,329.7,215.366,329.714,215.116,329.858z M206.492,334.837l-5.9,3.406c-0.251,0.145-0.273,0.367-0.051,0.495l5.644,3.259
				c0.223,0.129,0.607,0.115,0.857-0.029l5.9-3.407c0.251-0.145,0.273-0.367,0.051-0.495l-5.645-3.259
				C207.126,334.679,206.743,334.693,206.492,334.837z M158.773,387.994c0.223,0.129,0.606,0.115,0.857-0.029l5.9-3.407
				c0.25-0.145,0.273-0.367,0.05-0.495l-5.645-3.259c-0.223-0.128-0.607-0.115-0.857,0.029l-5.9,3.406
				c-0.251,0.145-0.273,0.366-0.051,0.495L158.773,387.994z M137.506,374.666l-5.9,3.406c-0.251,0.145-0.273,0.366-0.051,0.495
				l5.645,3.259c0.223,0.129,0.606,0.116,0.857-0.029l5.9-3.406c0.251-0.145,0.273-0.366,0.05-0.495l-5.645-3.259
				C138.14,374.509,137.757,374.521,137.506,374.666z M148.44,384.648c0.223,0.129,0.607,0.115,0.857-0.029l5.9-3.407
				c0.251-0.145,0.273-0.366,0.05-0.494l-5.644-3.259c-0.223-0.129-0.606-0.115-0.857,0.029l-5.9,3.406
				c-0.251,0.145-0.273,0.366-0.051,0.495L148.44,384.648z M172.233,389.999l5.9-3.406c0.251-0.145,0.273-0.366,0.051-0.495
				l-5.645-3.259c-0.223-0.128-0.607-0.115-0.857,0.03l-5.9,3.406c-0.25,0.144-0.273,0.366-0.05,0.495l5.645,3.259
				C171.598,390.157,171.982,390.144,172.233,389.999z M162.753,395.007c0.222,0.129,0.606,0.116,0.857-0.029l5.9-3.407
				c0.251-0.145,0.273-0.366,0.051-0.494l-5.645-3.259c-0.223-0.129-0.606-0.115-0.857,0.029l-5.9,3.407
				c-0.25,0.145-0.273,0.366-0.05,0.494L162.753,395.007z M146.129,369.688l-5.9,3.406c-0.251,0.145-0.273,0.366-0.05,0.495
				l5.644,3.259c0.223,0.129,0.606,0.115,0.857-0.029l5.9-3.407c0.251-0.145,0.273-0.366,0.051-0.494l-5.644-3.259
				C146.763,369.53,146.38,369.543,146.129,369.688z M189.245,344.794l-5.9,3.406c-0.25,0.145-0.273,0.366-0.05,0.495l5.644,3.259
				c0.223,0.129,0.606,0.116,0.857-0.029l5.9-3.407c0.251-0.144,0.273-0.366,0.051-0.494l-5.645-3.259
				C189.88,344.636,189.496,344.65,189.245,344.794z M154.752,364.709l-5.9,3.406c-0.251,0.144-0.273,0.366-0.051,0.494l5.644,3.259
				c0.223,0.129,0.606,0.116,0.857-0.029l5.9-3.406c0.251-0.145,0.273-0.366,0.05-0.495l-5.644-3.259
				C155.387,364.551,155.003,364.564,154.752,364.709z M197.869,339.815l-5.9,3.407c-0.251,0.144-0.273,0.366-0.05,0.494
				l5.644,3.259c0.223,0.129,0.606,0.116,0.857-0.029l5.9-3.406c0.251-0.145,0.273-0.366,0.051-0.495l-5.645-3.259
				C198.503,339.658,198.119,339.671,197.869,339.815z M180.622,349.773l-5.9,3.406c-0.251,0.145-0.274,0.366-0.051,0.495
				l5.645,3.259c0.222,0.129,0.606,0.116,0.857-0.029l5.9-3.406c0.251-0.145,0.274-0.366,0.051-0.495l-5.645-3.259
				C181.257,349.615,180.873,349.628,180.622,349.773z M171.999,354.751l-5.9,3.407c-0.251,0.145-0.274,0.366-0.051,0.494
				l5.645,3.259c0.222,0.129,0.606,0.115,0.857-0.029l5.9-3.406c0.25-0.145,0.273-0.367,0.05-0.495l-5.644-3.259
				C172.633,354.594,172.249,354.607,171.999,354.751z M163.376,359.73l-5.9,3.406c-0.251,0.145-0.273,0.367-0.051,0.495
				l5.645,3.259c0.223,0.129,0.607,0.115,0.857-0.029l5.9-3.407c0.25-0.145,0.273-0.367,0.05-0.495l-5.645-3.258
				C164.01,359.573,163.626,359.586,163.376,359.73z M202.747,363.071l5.9-3.407c0.251-0.145,0.273-0.367,0.051-0.495l-5.645-3.259
				c-0.223-0.129-0.607-0.115-0.857,0.029l-5.9,3.406c-0.251,0.145-0.273,0.366-0.05,0.495l5.644,3.259
				C202.113,363.229,202.496,363.216,202.747,363.071z M283.194,290.553l-5.9,3.407c-0.251,0.145-0.273,0.366-0.051,0.495
				l5.645,3.259c0.223,0.129,0.607,0.115,0.857-0.029l5.9-3.406c0.251-0.145,0.273-0.366,0.051-0.495l-5.645-3.259
				C283.829,290.395,283.445,290.408,283.194,290.553z M272.755,296.58l-5.9,3.407c-0.251,0.145-0.273,0.366-0.051,0.495
				l5.644,3.259c0.223,0.128,0.607,0.115,0.857-0.029l5.9-3.406c0.251-0.145,0.273-0.366,0.051-0.495l-5.645-3.259
				C273.39,296.422,273.006,296.435,272.755,296.58z M291.817,285.575l-5.9,3.406c-0.251,0.145-0.273,0.366-0.051,0.495l5.645,3.259
				c0.222,0.129,0.606,0.116,0.856-0.029l5.9-3.406c0.251-0.145,0.274-0.367,0.051-0.495l-5.644-3.259
				C292.452,285.417,292.069,285.43,291.817,285.575z M244.154,329.853l5.9-3.406c0.251-0.145,0.273-0.366,0.051-0.495l-5.644-3.259
				c-0.223-0.129-0.607-0.115-0.857,0.029l-5.9,3.407c-0.251,0.145-0.273,0.366-0.051,0.495l5.645,3.259
				C243.52,330.011,243.903,329.998,244.154,329.853z M301.298,280.566c-0.222-0.129-0.607-0.116-0.857,0.029l-5.9,3.406
				c-0.251,0.145-0.274,0.366-0.051,0.495l5.645,3.259c0.222,0.129,0.606,0.116,0.857-0.029l5.9-3.407
				c0.251-0.145,0.274-0.366,0.051-0.495L301.298,280.566z M211.37,358.092l5.9-3.406c0.251-0.145,0.273-0.366,0.05-0.495
				l-5.644-3.259c-0.223-0.129-0.606-0.115-0.857,0.029l-5.9,3.407c-0.251,0.145-0.273,0.366-0.05,0.494l5.644,3.259
				C210.736,358.25,211.12,358.237,211.37,358.092z M317.119,297.038l5.9-3.406c0.251-0.145,0.273-0.367,0.051-0.495l-5.645-3.258
				c-0.223-0.129-0.606-0.116-0.857,0.029l-5.9,3.406c-0.25,0.145-0.273,0.367-0.051,0.495l5.645,3.259
				C316.485,297.196,316.868,297.183,317.119,297.038z M300.432,297.361l5.9-3.407c0.25-0.144,0.273-0.366,0.05-0.494l-5.645-3.259
				c-0.222-0.129-0.606-0.115-0.856,0.029l-5.9,3.406c-0.251,0.145-0.274,0.366-0.051,0.495l5.645,3.259
				C299.797,297.519,300.182,297.506,300.432,297.361z M309.361,285.222c-0.222-0.129-0.606-0.115-0.857,0.029l-5.9,3.407
				c-0.25,0.145-0.273,0.366-0.05,0.494l5.645,3.259c0.222,0.129,0.607,0.115,0.856-0.029l5.9-3.406
				c0.251-0.145,0.274-0.366,0.051-0.495L309.361,285.222z M311.177,284.174l13.708,7.915c0.223,0.128,0.606,0.115,0.857-0.029
				l5.9-3.406c0.251-0.145,0.273-0.366,0.051-0.495l-13.709-7.915c-0.223-0.129-0.607-0.115-0.857,0.029l-5.9,3.406
				C310.977,283.823,310.954,284.046,311.177,284.174z M291.258,295.209l-5.9,3.406c-0.251,0.144-0.274,0.366-0.051,0.495
				l5.645,3.258c0.223,0.129,0.606,0.116,0.857-0.029l5.9-3.406c0.25-0.145,0.273-0.366,0.051-0.495l-5.644-3.259
				C291.892,295.051,291.508,295.064,291.258,295.209z M226.356,332.679l-5.9,3.407c-0.251,0.145-0.273,0.366-0.05,0.494
				l5.644,3.259c0.223,0.129,0.606,0.116,0.857-0.029l5.9-3.406c0.251-0.145,0.273-0.366,0.05-0.495l-5.644-3.259
				C226.99,332.522,226.607,332.535,226.356,332.679z M307.639,302.046c0.222,0.129,0.606,0.115,0.857-0.029l5.9-3.406
				c0.25-0.145,0.273-0.366,0.051-0.495l-5.645-3.259c-0.222-0.129-0.607-0.115-0.857,0.029l-5.9,3.407
				c-0.251,0.144-0.274,0.366-0.051,0.494L307.639,302.046z M234.979,327.701l-5.9,3.406c-0.251,0.145-0.273,0.366-0.05,0.495
				l5.644,3.259c0.223,0.129,0.606,0.115,0.857-0.029l5.9-3.407c0.251-0.145,0.273-0.366,0.05-0.494l-5.644-3.259
				C235.614,327.543,235.23,327.556,234.979,327.701z M167.397,383.015c0.223,0.129,0.607,0.115,0.857-0.029l5.9-3.406
				c0.25-0.145,0.273-0.366,0.05-0.495l-5.645-3.259c-0.222-0.129-0.606-0.115-0.857,0.029l-5.9,3.407
				c-0.251,0.145-0.273,0.366-0.051,0.495L167.397,383.015z M157.37,372.509l-5.9,3.407c-0.251,0.144-0.273,0.366-0.05,0.494
				l5.644,3.259c0.223,0.129,0.606,0.115,0.857-0.029l5.9-3.406c0.251-0.145,0.273-0.366,0.051-0.495l-5.644-3.259
				C158.004,372.351,157.62,372.364,157.37,372.509z M176.877,378.007l5.9-3.406c0.251-0.145,0.274-0.366,0.051-0.495l-5.645-3.258
				c-0.222-0.129-0.606-0.116-0.857,0.029l-5.9,3.406c-0.25,0.145-0.273,0.366-0.05,0.495l5.645,3.259
				C176.243,378.164,176.626,378.152,176.877,378.007z M185.5,373.028l5.9-3.406c0.251-0.145,0.274-0.366,0.051-0.495l-5.645-3.259
				c-0.222-0.129-0.606-0.115-0.857,0.029l-5.9,3.406c-0.25,0.145-0.273,0.366-0.05,0.495l5.645,3.259
				C184.866,373.186,185.25,373.173,185.5,373.028z M194.124,368.049l5.9-3.406c0.251-0.145,0.273-0.366,0.051-0.495l-5.645-3.259
				c-0.222-0.128-0.606-0.115-0.857,0.03l-5.9,3.406c-0.251,0.145-0.274,0.367-0.051,0.495l5.644,3.259
				C193.489,368.207,193.873,368.194,194.124,368.049z M165.993,367.53l-5.9,3.406c-0.251,0.145-0.273,0.366-0.051,0.495
				l5.645,3.259c0.223,0.129,0.606,0.116,0.857-0.029l5.9-3.406c0.251-0.145,0.273-0.367,0.051-0.495l-5.645-3.259
				C166.628,367.373,166.244,367.385,165.993,367.53z M174.617,362.552l-5.9,3.406c-0.251,0.145-0.274,0.366-0.051,0.495
				l5.645,3.259c0.223,0.129,0.606,0.115,0.857-0.029l5.9-3.407c0.25-0.145,0.273-0.366,0.05-0.495l-5.645-3.259
				C175.251,362.394,174.867,362.407,174.617,362.552z M209.11,342.637l-5.9,3.406c-0.251,0.145-0.273,0.366-0.05,0.495l5.644,3.259
				c0.223,0.129,0.606,0.116,0.857-0.029l5.9-3.406c0.251-0.145,0.273-0.367,0.051-0.495l-5.645-3.258
				C209.744,342.479,209.36,342.492,209.11,342.637z M200.486,347.616l-5.9,3.407c-0.25,0.145-0.273,0.367-0.05,0.495l5.644,3.259
				c0.223,0.129,0.607,0.115,0.857-0.029l5.9-3.406c0.251-0.145,0.274-0.367,0.051-0.495l-5.645-3.259
				C201.12,347.458,200.737,347.471,200.486,347.616z M217.733,337.658l-5.9,3.406c-0.251,0.145-0.273,0.366-0.051,0.495
				l5.644,3.259c0.223,0.129,0.606,0.115,0.857-0.029l5.9-3.407c0.251-0.145,0.273-0.366,0.05-0.494l-5.644-3.259
				C218.367,337.5,217.984,337.514,217.733,337.658z M183.24,357.573l-5.9,3.407c-0.251,0.145-0.274,0.366-0.051,0.495l5.645,3.259
				c0.222,0.129,0.606,0.116,0.857-0.029l5.9-3.406c0.25-0.145,0.273-0.366,0.051-0.495l-5.645-3.259
				C183.874,357.415,183.49,357.428,183.24,357.573z M191.863,352.594l-5.9,3.406c-0.25,0.145-0.273,0.366-0.05,0.495l5.645,3.259
				c0.222,0.129,0.606,0.115,0.857-0.029l5.9-3.407c0.251-0.145,0.274-0.366,0.051-0.494l-5.645-3.259
				C192.498,352.436,192.113,352.45,191.863,352.594z M180.856,385.021l5.9-3.407c0.251-0.145,0.273-0.366,0.051-0.495l-5.645-3.259
				c-0.223-0.129-0.606-0.116-0.857,0.029l-5.9,3.406c-0.251,0.145-0.273,0.367-0.051,0.495l5.644,3.259
				C180.222,385.178,180.605,385.165,180.856,385.021z M135.384,382.875l-5.645-3.259c-0.223-0.129-0.606-0.115-0.857,0.029
				l-5.9,3.407c-0.251,0.145-0.273,0.366-0.051,0.495l5.644,3.259c0.223,0.129,0.607,0.115,0.857-0.029l5.9-3.406
				C135.584,383.225,135.607,383.003,135.384,382.875z M146.625,385.696l-5.645-3.259c-0.222-0.129-0.606-0.116-0.857,0.029
				l-9.077,5.241c-0.251,0.145-0.273,0.366-0.05,0.495l5.645,3.259c0.223,0.129,0.606,0.116,0.857-0.029l9.077-5.241
				C146.825,386.046,146.847,385.824,146.625,385.696z M126.959,376.438l-5.644-3.258c-0.223-0.129-0.606-0.116-0.857,0.029
				l-7.262,4.193c-0.25,0.145-0.273,0.367-0.05,0.495l5.644,3.259c0.223,0.129,0.607,0.115,0.857-0.029l7.262-4.193
				C127.159,376.789,127.182,376.566,126.959,376.438z M132.527,373.224c0.222,0.129,0.606,0.115,0.856-0.029l5.9-3.407
				c0.251-0.145,0.274-0.366,0.051-0.494l-5.645-3.259c-0.222-0.129-0.607-0.115-0.857,0.029l-5.899,3.406
				c-0.251,0.145-0.274,0.366-0.051,0.495L132.527,373.224z M156.958,389.041l-5.644-3.259c-0.223-0.128-0.607-0.115-0.857,0.03
				l-11.347,6.55c-0.251,0.145-0.273,0.366-0.05,0.495l5.644,3.259c0.223,0.129,0.606,0.115,0.857-0.029l11.347-6.551
				C157.158,389.391,157.181,389.17,156.958,389.041z M160.937,396.055l-5.645-3.259c-0.222-0.129-0.606-0.116-0.856,0.029
				l-7.262,4.193c-0.251,0.145-0.273,0.367-0.051,0.495l5.645,3.259c0.223,0.129,0.606,0.115,0.857-0.029l7.262-4.193
				C161.137,396.406,161.159,396.184,160.937,396.055z M196.641,336.207c0.222,0.129,0.606,0.116,0.856-0.029l5.9-3.407
				c0.251-0.145,0.274-0.366,0.051-0.494l-5.644-3.259c-0.223-0.129-0.607-0.115-0.858,0.029l-5.9,3.406
				c-0.251,0.145-0.274,0.366-0.051,0.495L196.641,336.207z M179.395,346.164c0.223,0.129,0.607,0.115,0.857-0.029l5.9-3.407
				c0.251-0.144,0.273-0.366,0.05-0.494l-5.644-3.259c-0.223-0.129-0.606-0.115-0.857,0.029l-5.9,3.406
				c-0.251,0.145-0.273,0.366-0.051,0.495L179.395,346.164z M141.149,368.245c0.223,0.129,0.607,0.116,0.857-0.029l5.9-3.406
				c0.251-0.145,0.274-0.366,0.051-0.495l-5.645-3.259c-0.223-0.128-0.606-0.115-0.857,0.03l-5.9,3.406
				c-0.25,0.145-0.273,0.366-0.05,0.495L141.149,368.245z M188.018,341.185c0.223,0.129,0.606,0.116,0.857-0.029l5.9-3.406
				c0.25-0.145,0.273-0.366,0.05-0.495l-5.644-3.259c-0.223-0.128-0.606-0.115-0.857,0.03l-5.9,3.406
				c-0.251,0.145-0.273,0.366-0.051,0.495L188.018,341.185z M170.771,351.143c0.223,0.128,0.607,0.115,0.857-0.03l5.9-3.406
				c0.251-0.145,0.273-0.366,0.051-0.495l-5.644-3.259c-0.223-0.128-0.606-0.116-0.857,0.029l-5.9,3.406
				c-0.251,0.145-0.273,0.367-0.05,0.495L170.771,351.143z M165.172,396.404c-0.223-0.129-0.606-0.116-0.857,0.029l-9.077,5.241
				c-0.251,0.145-0.273,0.366-0.051,0.495l5.645,3.259c0.223,0.129,0.606,0.116,0.857-0.029l9.077-5.24
				c0.251-0.145,0.273-0.366,0.05-0.495L165.172,396.404z M158.396,358.288c0.223,0.129,0.606,0.115,0.857-0.029l5.9-3.406
				c0.251-0.145,0.273-0.366,0.051-0.495l-5.644-3.259c-0.223-0.129-0.607-0.115-0.857,0.029l-5.9,3.407
				c-0.251,0.145-0.273,0.366-0.051,0.495L158.396,358.288z M149.773,363.267c0.223,0.129,0.607,0.116,0.857-0.029l5.9-3.407
				c0.251-0.145,0.273-0.366,0.051-0.495l-5.645-3.259c-0.223-0.129-0.607-0.115-0.857,0.029l-5.9,3.406
				c-0.251,0.145-0.273,0.366-0.05,0.495L149.773,363.267z M324.929,304.168c-0.223-0.129-0.606-0.116-0.857,0.029l-14.523,8.385
				c-0.251,0.145-0.274,0.366-0.051,0.495l5.645,3.259c0.222,0.129,0.606,0.116,0.857-0.029l14.523-8.385
				c0.25-0.145,0.273-0.366,0.051-0.494L324.929,304.168z M305.867,315.173c-0.223-0.129-0.606-0.116-0.857,0.029l-5.9,3.406
				c-0.251,0.145-0.273,0.366-0.051,0.495l5.644,3.259c0.223,0.128,0.607,0.115,0.857-0.03l5.9-3.406
				c0.251-0.144,0.273-0.366,0.05-0.495L305.867,315.173z M189.48,380.042l5.9-3.406c0.251-0.145,0.273-0.367,0.05-0.495
				l-5.644-3.259c-0.223-0.129-0.606-0.115-0.857,0.029l-5.9,3.407c-0.251,0.145-0.273,0.366-0.051,0.495l5.644,3.259
				C188.845,380.2,189.229,380.187,189.48,380.042z M288.621,325.13c-0.223-0.129-0.607-0.115-0.857,0.029l-5.9,3.406
				c-0.251,0.145-0.273,0.367-0.05,0.495l5.644,3.259c0.223,0.129,0.606,0.115,0.857-0.029l5.9-3.407
				c0.251-0.145,0.273-0.366,0.051-0.494L288.621,325.13z M333.553,299.189c-0.223-0.129-0.606-0.116-0.857,0.029l-5.9,3.407
				c-0.25,0.145-0.273,0.366-0.05,0.494l5.644,3.259c0.223,0.129,0.607,0.115,0.857-0.029l5.9-3.406
				c0.251-0.145,0.273-0.366,0.051-0.495L333.553,299.189z M347.821,297.47l-13.709-7.915c-0.223-0.129-0.606-0.116-0.857,0.029
				l-5.9,3.407c-0.251,0.145-0.273,0.366-0.051,0.494l13.708,7.915c0.223,0.129,0.606,0.115,0.857-0.029l5.9-3.407
				C348.021,297.819,348.043,297.598,347.821,297.47z M256.397,343.735c-0.222-0.129-0.607-0.115-0.857,0.029l-7.262,4.192
				c-0.251,0.145-0.273,0.367-0.051,0.495l5.644,3.258c0.223,0.129,0.606,0.116,0.857-0.029l7.262-4.192
				c0.251-0.145,0.274-0.367,0.051-0.495L256.397,343.735z M278.182,331.157c-0.223-0.129-0.607-0.115-0.857,0.029l-9.077,5.241
				c-0.25,0.144-0.273,0.366-0.051,0.495l5.645,3.259c0.222,0.129,0.606,0.115,0.857-0.029l9.077-5.241
				c0.251-0.145,0.273-0.366,0.05-0.495L278.182,331.157z M236.428,355.264c-0.223-0.129-0.606-0.115-0.857,0.029l-48.563,28.038
				c-0.251,0.145-0.274,0.366-0.051,0.494l5.645,3.259c0.222,0.129,0.606,0.116,0.857-0.029l48.563-28.037
				c0.251-0.145,0.273-0.367,0.051-0.495L236.428,355.264z M185.141,384.874c-0.223-0.129-0.607-0.115-0.857,0.029l-7.262,4.193
				c-0.251,0.145-0.273,0.366-0.051,0.495l5.644,3.259c0.223,0.128,0.607,0.115,0.857-0.03l7.262-4.193
				c0.25-0.145,0.273-0.366,0.05-0.494L185.141,384.874z M246.412,349.5c-0.223-0.129-0.606-0.115-0.857,0.029l-7.261,4.192
				c-0.251,0.145-0.274,0.366-0.051,0.495l5.645,3.259c0.222,0.129,0.606,0.116,0.857-0.029l7.262-4.193
				c0.251-0.144,0.273-0.366,0.05-0.494L246.412,349.5z M175.156,390.639c-0.222-0.128-0.606-0.115-0.857,0.029l-7.262,4.193
				c-0.251,0.145-0.273,0.366-0.05,0.495l5.644,3.259c0.223,0.129,0.606,0.115,0.857-0.029l7.262-4.193
				c0.251-0.145,0.274-0.366,0.051-0.495L175.156,390.639z M266.382,337.97c-0.223-0.129-0.606-0.116-0.857,0.029l-7.262,4.193
				c-0.25,0.145-0.273,0.366-0.05,0.494l5.645,3.259c0.222,0.129,0.606,0.116,0.856-0.029l7.262-4.193
				c0.251-0.145,0.273-0.366,0.05-0.495L266.382,337.97z M297.244,320.152c-0.223-0.129-0.607-0.115-0.857,0.029l-5.9,3.407
				c-0.251,0.145-0.273,0.366-0.05,0.495l5.644,3.259c0.223,0.128,0.606,0.115,0.857-0.029l5.9-3.406
				c0.251-0.145,0.273-0.366,0.051-0.495L297.244,320.152z M316.559,306.672l5.9-3.406c0.251-0.145,0.274-0.367,0.051-0.495
				l-5.645-3.258c-0.222-0.129-0.606-0.116-0.857,0.029l-5.9,3.406c-0.25,0.145-0.273,0.366-0.051,0.495l5.645,3.259
				C315.925,306.83,316.309,306.817,316.559,306.672z M281.37,308.366l5.9-3.406c0.251-0.145,0.273-0.366,0.051-0.495l-5.645-3.259
				c-0.223-0.129-0.606-0.116-0.857,0.029l-5.9,3.406c-0.251,0.145-0.273,0.366-0.05,0.495l5.644,3.258
				C280.736,308.524,281.119,308.511,281.37,308.366z M258.466,340.213l17.247-9.957c0.251-0.145,0.273-0.366,0.05-0.495
				l-5.644-3.259c-0.223-0.128-0.606-0.116-0.857,0.03l-17.247,9.957c-0.251,0.144-0.273,0.366-0.051,0.495l5.644,3.259
				C257.832,340.37,258.215,340.358,258.466,340.213z M307.079,311.68c0.222,0.129,0.607,0.115,0.857-0.029l5.9-3.406
				c0.251-0.145,0.274-0.366,0.051-0.495l-5.645-3.259c-0.222-0.128-0.606-0.115-0.857,0.029l-5.901,3.407
				c-0.25,0.144-0.273,0.366-0.05,0.495L307.079,311.68z M299.873,306.996l5.901-3.407c0.25-0.145,0.273-0.366,0.05-0.494
				l-5.644-3.259c-0.223-0.129-0.607-0.115-0.857,0.029l-5.9,3.406c-0.251,0.145-0.274,0.366-0.051,0.495l5.645,3.259
				C299.238,307.153,299.622,307.14,299.873,306.996z M249.842,345.191l5.9-3.407c0.251-0.145,0.273-0.366,0.05-0.494l-5.644-3.259
				c-0.223-0.129-0.606-0.115-0.857,0.029l-5.9,3.407c-0.251,0.145-0.273,0.366-0.05,0.494l5.644,3.259
				C249.208,345.349,249.592,345.336,249.842,345.191z M288.017,322.686c0.223,0.129,0.606,0.115,0.857-0.029l5.9-3.407
				c0.251-0.145,0.273-0.366,0.051-0.494l-5.645-3.259c-0.223-0.129-0.606-0.116-0.857,0.029l-5.9,3.406
				c-0.251,0.145-0.273,0.366-0.05,0.495L288.017,322.686z M206.726,370.085l5.9-3.407c0.25-0.145,0.273-0.366,0.05-0.495
				l-5.645-3.259c-0.222-0.129-0.606-0.116-0.857,0.029l-5.9,3.407c-0.251,0.145-0.273,0.366-0.051,0.494l5.645,3.259
				C206.092,370.243,206.475,370.229,206.726,370.085z M215.349,365.106l5.9-3.406c0.25-0.145,0.273-0.366,0.05-0.495l-5.645-3.259
				c-0.222-0.128-0.606-0.115-0.856,0.03l-5.9,3.406c-0.251,0.144-0.273,0.366-0.051,0.495l5.645,3.259
				C214.715,365.264,215.099,365.251,215.349,365.106z M198.103,375.063l5.9-3.406c0.251-0.145,0.273-0.366,0.051-0.495
				l-5.644-3.258c-0.223-0.129-0.606-0.116-0.857,0.029l-5.9,3.406c-0.251,0.145-0.273,0.366-0.051,0.495l5.645,3.259
				C197.469,375.221,197.852,375.208,198.103,375.063z M232.596,355.149l5.9-3.406c0.251-0.145,0.274-0.367,0.051-0.495
				l-5.645-3.259c-0.222-0.129-0.607-0.115-0.857,0.029l-5.9,3.407c-0.25,0.144-0.273,0.366-0.051,0.494l5.644,3.259
				C231.961,355.307,232.346,355.293,232.596,355.149z M223.973,360.127l5.9-3.406c0.251-0.144,0.274-0.366,0.051-0.495
				l-5.645-3.259c-0.222-0.129-0.606-0.116-0.857,0.029l-5.9,3.406c-0.25,0.145-0.273,0.367-0.05,0.495l5.645,3.259
				C223.338,360.285,223.722,360.272,223.973,360.127z M241.219,350.17l5.9-3.406c0.251-0.145,0.273-0.366,0.051-0.495l-5.645-3.259
				c-0.223-0.129-0.606-0.116-0.857,0.029l-5.9,3.406c-0.251,0.145-0.273,0.366-0.05,0.495l5.644,3.259
				C240.585,350.328,240.968,350.315,241.219,350.17z M288.277,280.91c0.223,0.128,0.607,0.115,0.857-0.029l5.9-3.407
				c0.251-0.145,0.273-0.366,0.05-0.494l-1.502-0.868c-0.223-0.129-0.607-0.115-0.857,0.029l-5.9,3.407
				c-0.25,0.144-0.273,0.366-0.05,0.495L288.277,280.91z M245.416,308.047c0.222,0.129,0.606,0.116,0.857-0.029l5.9-3.406
				c0.25-0.145,0.273-0.366,0.051-0.495l-5.645-3.258c-0.223-0.129-0.607-0.116-0.857,0.029l-5.9,3.407
				c-0.251,0.145-0.274,0.366-0.051,0.495L245.416,308.047z M262.663,298.09c0.222,0.129,0.606,0.115,0.856-0.029l5.9-3.406
				c0.251-0.145,0.273-0.366,0.051-0.495l-5.645-3.259c-0.223-0.129-0.607-0.115-0.857,0.029l-5.9,3.407
				c-0.25,0.145-0.273,0.367-0.05,0.495L262.663,298.09z M234.886,314.126c0.223,0.128,0.606,0.116,0.857-0.029l5.9-3.406
				c0.25-0.144,0.273-0.366,0.05-0.495l-5.644-3.259c-0.223-0.128-0.607-0.115-0.857,0.03l-5.9,3.406
				c-0.251,0.145-0.273,0.366-0.051,0.495L234.886,314.126z M254.039,303.068c0.222,0.129,0.606,0.116,0.857-0.029l5.9-3.407
				c0.25-0.145,0.273-0.366,0.05-0.495l-5.645-3.259c-0.222-0.129-0.606-0.116-0.857,0.029l-5.9,3.406
				c-0.251,0.145-0.274,0.366-0.051,0.495L254.039,303.068z M217.639,324.084c0.223,0.128,0.606,0.115,0.857-0.03l5.9-3.406
				c0.251-0.145,0.273-0.366,0.051-0.495l-5.645-3.259c-0.223-0.129-0.606-0.116-0.857,0.029l-5.9,3.406
				c-0.251,0.145-0.273,0.366-0.05,0.495L217.639,324.084z M226.263,319.105c0.223,0.129,0.606,0.115,0.857-0.029l5.9-3.407
				c0.251-0.145,0.273-0.366,0.05-0.495l-5.644-3.259c-0.223-0.129-0.606-0.115-0.857,0.029l-5.9,3.406
				c-0.251,0.145-0.273,0.366-0.051,0.495L226.263,319.105z M271.03,290.867c0.223,0.129,0.607,0.115,0.857-0.029l5.9-3.407
				c0.25-0.144,0.273-0.366,0.051-0.494l-1.503-0.868c-0.222-0.129-0.606-0.115-0.856,0.029l-5.9,3.407
				c-0.251,0.145-0.274,0.366-0.051,0.494L271.03,290.867z M296.9,275.931c0.223,0.129,0.606,0.116,0.857-0.029l5.9-3.406
				c0.251-0.145,0.273-0.366,0.05-0.495l-1.502-0.868c-0.223-0.128-0.606-0.115-0.857,0.03l-5.9,3.406
				c-0.251,0.145-0.273,0.367-0.051,0.495L296.9,275.931z M308.758,282.777c0.223,0.129,0.606,0.116,0.857-0.029l5.9-3.406
				c0.251-0.145,0.273-0.366,0.051-0.495l-5.645-3.259c-0.222-0.129-0.606-0.116-0.857,0.029l-5.9,3.407
				c-0.251,0.145-0.273,0.366-0.051,0.495L308.758,282.777z M325.183,301.694l5.9-3.407c0.251-0.144,0.274-0.366,0.051-0.494
				l-5.645-3.259c-0.222-0.129-0.607-0.115-0.857,0.029l-5.9,3.406c-0.25,0.145-0.273,0.366-0.05,0.495l5.644,3.259
				C324.548,301.852,324.932,301.838,325.183,301.694z M279.654,285.888c0.223,0.129,0.606,0.116,0.857-0.029l5.9-3.406
				c0.251-0.145,0.273-0.366,0.051-0.495l-1.503-0.867c-0.223-0.129-0.606-0.116-0.857,0.029l-5.9,3.406
				c-0.25,0.145-0.273,0.366-0.051,0.495L279.654,285.888z M209.016,329.062c0.223,0.129,0.607,0.116,0.857-0.029l5.9-3.406
				c0.251-0.145,0.274-0.366,0.051-0.495l-5.645-3.259c-0.223-0.129-0.606-0.115-0.857,0.029l-5.9,3.407
				c-0.25,0.145-0.273,0.366-0.05,0.494L209.016,329.062z"/>
		</g>
		<polygon id="XMLID_1604_" style="opacity:0.4;" points="234.536,373.536 235.745,374.234 267.878,392.783 325.023,359.789 
			326.212,359.112 292.87,339.865 		"/>
		<g id="XMLID_532_">
			<polygon id="XMLID_1600_" style="fill:#27DEBF;" points="235.745,374.234 267.878,392.783 325.023,359.789 292.87,341.24 			"/>
			<polygon id="XMLID_721_" style="opacity:0.45;" points="235.745,374.234 267.878,392.783 325.023,359.789 292.87,341.24 			"/>
		</g>
		<path id="XMLID_993_" style="fill:#27DEBF;" d="M69.76,367.525c0.489,0.281,1.039,0.514,1.627,0.697
			c-0.587-0.171-1.137-0.404-1.627-0.685c-0.171-0.098-0.342-0.208-0.501-0.33C69.418,367.317,69.589,367.427,69.76,367.525z"/>
		<path id="XMLID_992_" style="fill:#27DEBF;" d="M79.03,368.026c0.024-0.037,0.049-0.049,0.086-0.073
			c-0.024,0.025-0.049,0.037-0.061,0.061C79.042,368.026,79.042,368.026,79.03,368.026z"/>
	</g>
</g>
<g id="Speech_Bubble">
	<g id="Speed">
		<g id="XMLID_689_">
			<path id="XMLID_704_" style="fill:#FAFAFA;" d="M447.601,24.563L320.598,97.889c-1.135,0.655-2.055,2.249-2.055,3.56v142.2
				c0,1.311,0.925,2.896,2.067,3.54l3.754,2.119c1.142,0.644,2.987,0.635,4.122-0.02l127.004-73.326
				c1.135-0.655,2.055-2.249,2.055-3.56v-142.2c0-1.311-0.925-2.896-2.067-3.54l-3.754-2.119
				C450.582,23.898,448.736,23.907,447.601,24.563z"/>
			<path id="XMLID_703_" style="fill:#37474F;" d="M326.43,248.1v-142.2c0-1.311,0.92-2.905,2.055-3.56l127.004-73.326
				c1.135-0.655,2.055-0.124,2.055,1.187v142.2c0,1.311-0.92,2.905-2.055,3.56l-127.004,73.326
				C327.35,249.942,326.43,249.411,326.43,248.1z"/>
			<path id="XMLID_702_" style="fill:#263238;" d="M328.486,249.287c-1.094,0.635-3.093,0.657-4.126,0.024l-3.75-2.127
				c-1.139-0.636-2.07-2.221-2.07-3.532V101.448c0-0.683,0.256-1.434,0.655-2.098l7.841,4.528c-0.38,0.636-0.607,1.367-0.607,2.022
				v142.195C326.43,249.296,327.275,249.988,328.486,249.287z"/>
			<path id="XMLID_698_" style="fill:#455A64;" d="M457.517,29.828c-0.161-1.035-1.006-1.405-2.032-0.816L328.49,102.34
				c-0.569,0.332-1.082,0.892-1.453,1.538l-7.851-4.528c0.37-0.617,0.864-1.149,1.415-1.462l127.005-73.329
				c1.13-0.655,2.972-0.665,4.12-0.019l3.75,2.117C456.511,27.246,457.375,28.604,457.517,29.828z"/>
			<path id="XMLID_697_" style="fill:#FAFAFA;" d="M303.074,186.48c-1.291-0.769-7.281-4.177-7.595-4.358
				c-0.949-0.579-1.291-1.984-0.408-2.934l23.649-25.367l7.709,4.424l-23.639,25.376C301.935,184.534,302.21,185.854,303.074,186.48
				z"/>
			<path id="XMLID_696_" style="fill:#455A64;" d="M303.074,186.48c-1.291-0.769-7.281-4.177-7.595-4.358
				c-0.949-0.579-1.291-1.984-0.408-2.934l23.649-25.367l7.709,4.424l-23.639,25.376C301.935,184.534,302.21,185.854,303.074,186.48
				z"/>
			<path id="XMLID_691_" style="fill:#FAFAFA;" d="M326.43,158.25l-23.644,25.37c-1.185,1.271-0.184,3.334,1.547,3.192l22.096-1.82
				L326.43,158.25z"/>
			<path id="XMLID_690_" style="fill:#37474F;" d="M326.43,158.25l-23.644,25.37c-1.185,1.271-0.184,3.334,1.547,3.192l22.096-1.82
				L326.43,158.25z"/>
		</g>
		<g id="XMLID_562_">
			<g id="XMLID_526_">
				<path id="XMLID_896_" style="fill:#EBEBEB;" d="M398.883,146.745c-1.818-1.086-4.345-0.951-7.141,0.664
					c-5.54,3.201-10.032,10.98-10.031,17.378c0,3.18,1.111,5.416,2.908,6.47c1.184,0.694,5.676,3.272,6.842,3.957
					c1.815,1.067,4.331,0.924,7.114-0.683c5.54-3.199,10.037-10.979,10.031-17.378c-0.003-3.168-1.107-5.399-2.892-6.457
					C404.527,149.992,400.034,147.433,398.883,146.745z"/>
				<path id="XMLID_546_" style="fill:#E0E0E0;" d="M402.179,171.668l-19.792-11.427c-0.431,1.54-0.676,3.08-0.676,4.546
					c0,3.18,1.111,5.416,2.908,6.47c1.184,0.694,5.676,3.272,6.842,3.957c1.815,1.067,4.331,0.924,7.114-0.683
					C399.847,173.797,401.059,172.813,402.179,171.668z"/>
				<path id="XMLID_739_" style="fill:#FAFAFA;" d="M398.574,151.361c-5.54,3.201-10.032,10.98-10.031,17.378
					c0.001,6.398,4.493,8.991,10.033,5.792c5.54-3.199,10.037-10.979,10.031-17.378
					C408.601,150.756,404.109,148.163,398.574,151.361z"/>
				<path id="XMLID_534_" style="fill:#37474F;" d="M398.574,155.462c-3.579,2.068-6.481,7.093-6.48,11.226
					c0.001,4.133,2.902,5.808,6.481,3.742c3.579-2.066,6.484-7.093,6.48-11.226C405.052,155.071,402.15,153.396,398.574,155.462z"/>
			</g>
			<g id="XMLID_525_">
				<path id="XMLID_558_" style="fill:#27DEBF;" d="M442.006,137.78c0,0.933-0.008,1.732-0.05,2.673l-11.333,6.541l-6.827-3.943
					c0.034-0.765,0.042-1.866,0.042-2.623c0-7.735-1.833-13.931-5.028-18.295l9.181-13.132l6.827,3.943
					C439.366,118.729,441.997,127.145,442.006,137.78z"/>
				<path id="XMLID_972_" style="fill:#27DEBF;" d="M442.008,137.783c0,0.933-0.01,1.726-0.053,2.668l-11.331,6.542
					c0.034-0.765,0.042-1.862,0.042-2.619c0-7.735-1.833-13.931-5.028-18.295l9.181-13.132
					C439.368,118.732,442,127.148,442.008,137.783z"/>
				<polygon id="XMLID_522_" style="opacity:0.1;" points="425.639,126.08 418.809,122.136 427.99,109.004 434.82,112.948 				"/>
				<path id="XMLID_555_" style="opacity:0.2;" d="M430.664,144.371c0,0.757-0.008,1.858-0.042,2.623l-6.827-3.943
					c0.034-0.765,0.042-1.866,0.042-2.623c0-7.735-1.833-13.931-5.028-18.295l6.827,3.943
					C428.832,130.44,430.664,136.636,430.664,144.371z"/>
			</g>
			<g id="XMLID_502_">
				<path id="XMLID_548_" style="fill:#27DEBF;" d="M432.783,109.716l-9.147,13.082l-6.827-3.943
					c-0.126-0.118-0.252-0.227-0.378-0.345c-2.724-0.824-5.767-1.034-9.029-0.58l-6.827-3.943l3.371-14.595
					c6.575-1.026,12.468-0.025,17.319,2.791c1.051,0.605,5.187,2.976,6.675,3.842c0.302,0.168,0.597,0.345,0.891,0.538
					c0.202,0.126,0.395,0.252,0.589,0.387c0.202,0.126,0.395,0.261,0.589,0.412c0.143,0.101,0.277,0.202,0.412,0.311
					c0.555,0.412,1.101,0.858,1.623,1.337C432.295,109.237,432.539,109.472,432.783,109.716z"/>
				<path id="XMLID_547_" style="opacity:0.2;" d="M423.636,122.798l-6.827-3.943l-0.37-0.336
					C419.172,119.342,421.593,120.78,423.636,122.798z"/>
				<path id="XMLID_906_" style="opacity:0.2;fill:#FFFFFF;" d="M432.785,109.719l-9.147,13.082
					c-4.078-4.035-9.702-5.784-16.235-4.868l3.371-14.595C419.644,101.951,427.287,104.246,432.785,109.719z"/>
				<polygon id="XMLID_486_" style="opacity:0.1;" points="403.944,99.394 410.775,103.338 407.403,117.933 400.573,113.99 				"/>
				<path id="XMLID_539_" style="opacity:0.5;fill:#FFFFFF;" d="M421.265,102.183c1.051,0.605,5.187,2.976,6.675,3.842
					c-4.817-2.741-10.66-3.708-17.168-2.69l-6.827-3.943C410.52,98.366,416.414,99.366,421.265,102.183z"/>
			</g>
			<g id="XMLID_496_">
				<path id="XMLID_531_" style="fill:#27DEBF;" d="M407.477,104.016l-3.363,14.57c-3.027,0.79-6.213,2.119-9.5,4.019
					c-3.304,1.909-6.507,4.279-9.551,7.003l-6.827-3.943l-3.304-10.795c4.061-3.657,8.349-6.835,12.771-9.391
					c4.489-2.59,8.836-4.38,12.947-5.406L407.477,104.016z"/>
				<polygon id="XMLID_333_" style="opacity:0.05;" points="374.931,114.872 381.761,118.816 385.065,129.611 378.235,125.667 				
					"/>
				<path id="XMLID_524_" style="opacity:0.6;fill:#FFFFFF;" d="M407.477,104.016c-4.111,1.026-8.458,2.816-12.947,5.406
					c-4.422,2.556-8.71,5.734-12.771,9.391l-6.827-3.943c4.061-3.657,8.349-6.835,12.771-9.391c4.489-2.59,8.836-4.38,12.947-5.406
					L407.477,104.016z"/>
				<path id="XMLID_963_" style="opacity:0.4;fill:#FFFFFF;" d="M407.479,104.019l-3.363,14.57c-3.026,0.79-6.213,2.119-9.5,4.019
					c-3.304,1.908-6.508,4.279-9.551,7.003l-3.304-10.795c4.061-3.657,8.349-6.835,12.771-9.391
					C399.021,106.836,403.368,105.045,407.479,104.019z"/>
			</g>
			<g id="XMLID_495_">
				<path id="XMLID_909_" style="fill:#27DEBF;" d="M381.851,132.668c-6.062,6.154-11.35,13.687-15.335,21.725l-8.92-3.237
					l-6.827-3.943c5.423-10.896,12.645-21.077,20.934-29.3l6.827,3.943L381.851,132.668z"/>
				<path id="XMLID_915_" style="opacity:0.7;fill:#FFFFFF;" d="M378.53,121.856c-8.29,8.222-15.512,18.404-20.934,29.3
					l-6.827-3.943c5.423-10.896,12.645-21.077,20.934-29.3L378.53,121.856z"/>
				<path id="XMLID_319_" style="opacity:0.6;fill:#FFFFFF;" d="M381.853,132.671c-6.062,6.154-11.35,13.687-15.335,21.725
					l-8.92-3.237c5.423-10.896,12.645-21.077,20.935-29.3L381.853,132.671z"/>
			</g>
			<g id="XMLID_494_">
				<path id="XMLID_893_" style="fill:#27DEBF;" d="M364.465,158.815v0.008c-3.598,8.407-5.734,16.68-5.868,24.861l-11.51,6.642
					l-6.827-3.943c0.219-11.224,3.296-23.28,8.424-34.748l8.954,3.245L364.465,158.815z"/>
				<polygon id="XMLID_545_" style="opacity:0.6;fill:#FFFFFF;" points="355.513,155.581 348.683,151.638 357.637,154.883 
					364.467,158.818 				"/>
				<path id="XMLID_755_" style="opacity:0.9;fill:#FFFFFF;" d="M355.511,155.578c-5.129,11.468-8.206,23.524-8.424,34.748
					l-6.827-3.943c0.219-11.224,3.296-23.28,8.424-34.748L355.511,155.578z"/>
				<path id="XMLID_913_" style="opacity:0.75;fill:#FFFFFF;" d="M364.467,158.818v0.008c-3.598,8.407-5.74,16.68-5.874,24.861
					l-11.504,6.642c0.219-11.224,3.296-23.28,8.424-34.748L364.467,158.818z"/>
			</g>
			<g id="XMLID_533_">
				<polygon id="XMLID_541_" style="fill:#E0E0E0;" points="436.634,132.426 434.82,131.405 385.531,169.658 385.675,176.977 
					387.489,177.998 				"/>
				<polygon id="XMLID_538_" style="fill:#EBEBEB;" points="387.489,177.998 387.345,170.679 436.634,132.426 				"/>
				<polygon id="XMLID_542_" style="fill:#FFFFFF;" points="385.531,169.658 387.345,170.679 436.634,132.426 434.82,131.405 				
					"/>
			</g>
		</g>
	</g>
</g>
</svg>
